<svg width="102" height="28" viewBox="0 0 102 28" fill="none" xmlns="http://www.w3.org/2000/svg">
<g clip-path="url(#clip0_56_2)">
<path fill-rule="evenodd" clip-rule="evenodd" d="M0.000938143 0.271487C-0.010918 0.133926 0.0909802 0.0127972 0.228546 0.000938504C0.366104 -0.0109202 0.487235 0.0909816 0.499092 0.228543C0.55754 0.906526 0.628059 1.57576 0.714233 2.23566C0.732116 2.37257 0.63562 2.49805 0.498718 2.51593C0.361808 2.53381 0.236328 2.43731 0.218444 2.30041C0.131194 1.63224 0.059921 0.95566 0.000938143 0.271487ZM99.2801 0.320455C99.3533 0.208795 99.5022 0.173956 99.6177 0.243255C99.6946 0.289387 99.7378 0.370324 99.7391 0.45383C99.8896 0.549834 99.992 0.697197 100.029 0.888338C100.212 1.85229 100.29 2.82595 100.361 3.78621L100.374 3.95666C100.441 4.86271 100.507 5.7557 100.652 6.63833C100.722 7.06011 100.794 7.47932 100.865 7.89697C101.284 10.3592 101.694 12.7672 101.694 15.3296C101.694 15.4677 101.582 15.5796 101.444 15.5796C101.306 15.5796 101.194 15.4677 101.194 15.3296C101.194 12.8129 100.792 10.451 100.373 7.98746C100.301 7.56828 100.23 7.14616 100.159 6.71983C100.009 5.8141 99.942 4.89995 99.8755 3.99898L99.8625 3.82318C99.7912 2.86117 99.7148 1.91416 99.5373 0.981894C99.5314 0.95098 99.5219 0.928324 99.5089 0.910589C99.3783 1.12857 99.2476 1.34668 99.1168 1.5649L98.8432 2.02149C98.7722 2.13992 98.6187 2.17838 98.5002 2.1074C98.3818 2.03642 98.3434 1.88287 98.4143 1.76444L98.6874 1.30877C98.7831 1.14917 98.8787 0.989495 98.9743 0.829971C98.7346 0.857727 98.4465 0.929216 98.1383 1.02686C97.7357 1.15445 97.3225 1.31876 96.9774 1.46114C96.8967 1.49442 96.8177 1.52737 96.7437 1.55824C96.663 1.59189 96.5882 1.62308 96.5236 1.64957C96.4016 1.69957 96.291 1.74329 96.2173 1.76402C93.6099 2.49734 90.895 2.95438 88.2437 3.39626C88.0547 3.42777 87.8021 3.44477 87.5369 3.46107L87.4413 3.46689C87.1979 3.48167 86.9401 3.49733 86.6865 3.52269C86.3989 3.55145 86.1272 3.59179 85.8998 3.65379C85.6666 3.71736 85.5111 3.79574 85.4268 3.88007C85.3292 3.9777 85.1708 3.9777 85.0731 3.88007C84.9755 3.78244 84.9755 3.62415 85.0731 3.52652C85.2501 3.34953 85.5074 3.24252 85.7683 3.1714C86.0349 3.09869 86.3384 3.05501 86.6367 3.02517C86.9007 2.99877 87.1688 2.9825 87.4113 2.96779L87.5062 2.96201C87.7782 2.9453 88.0031 2.92947 88.1615 2.90306C90.8167 2.46053 93.505 2.00745 96.0819 1.28269C96.1225 1.27128 96.2049 1.23982 96.3339 1.18692C96.3996 1.16002 96.4707 1.13034 96.5487 1.09781C96.6217 1.06737 96.7007 1.03441 96.7867 0.99893C97.1345 0.855427 97.5637 0.684454 97.9873 0.55022C98.4051 0.417832 98.8421 0.31293 99.1985 0.317415C99.2256 0.317757 99.2529 0.318733 99.2801 0.320455ZM49.1669 2.72324C49.5889 2.62853 50.0086 2.65971 50.3634 2.91002C50.7128 3.15648 50.954 3.58405 51.0934 4.18423C51.2548 4.87856 51.32 5.59169 51.304 6.31263C51.301 6.45067 51.1866 6.56009 51.0485 6.55702C50.9105 6.55396 50.8011 6.43958 50.8042 6.30154C50.8193 5.61807 50.7573 4.947 50.6064 4.29738C50.4818 3.76084 50.2856 3.46704 50.0752 3.31858C49.8702 3.17398 49.6078 3.13671 49.2764 3.21111C49.1416 3.24134 49.0079 3.15664 48.9777 3.02193C48.9474 2.88721 49.0321 2.75348 49.1669 2.72324ZM96.6874 4.6295C96.7591 4.51155 96.9129 4.47412 97.0309 4.54589C97.1488 4.61766 97.1863 4.77146 97.1145 4.88941C96.5343 5.84297 95.9478 6.79412 95.3509 7.73891C95.2772 7.85564 95.1229 7.89048 95.0061 7.81674C94.8894 7.74299 94.8545 7.58858 94.9282 7.47185C95.5232 6.53009 96.1081 5.58144 96.6874 4.6295ZM45.3266 5.61611C45.4192 5.51369 45.5773 5.50572 45.6797 5.59831C45.7822 5.69091 45.7901 5.849 45.6975 5.95142C44.9649 6.76186 44.4222 7.48872 44.2748 7.75343C44.0074 8.23376 43.7651 8.74154 43.5517 9.26948C43.5 9.39749 43.3543 9.45933 43.2263 9.4076C43.0983 9.35587 43.0364 9.21016 43.0882 9.08214C43.309 8.53564 43.5602 8.00915 43.8379 7.51021C44.0143 7.19341 44.5892 6.43185 45.3266 5.61611ZM0.993438 6.31549C0.957717 6.18212 1.03688 6.04504 1.17025 6.00932C1.30362 5.9736 1.44069 6.05275 1.47641 6.18612C1.82526 7.48853 2.27581 8.74306 2.86112 9.94422C2.9216 10.0683 2.87001 10.218 2.74588 10.2785C2.62177 10.3389 2.47212 10.2874 2.41164 10.1632C1.81046 8.9295 1.34938 7.64436 0.993438 6.31549ZM49.9611 10.2715C50.0104 10.1426 50.1549 10.078 50.2839 10.1272C50.4129 10.1765 50.4775 10.321 50.4282 10.45C49.9322 11.748 49.2572 13.013 48.4847 14.185C48.4087 14.3003 48.2536 14.3321 48.1384 14.2561C48.0231 14.1802 47.9912 14.0251 48.0672 13.9098C48.823 12.7632 49.4801 11.5305 49.9611 10.2715ZM93.1087 10.2728C93.1856 10.1581 93.3408 10.1275 93.4555 10.2043C93.5702 10.2812 93.6009 10.4365 93.524 10.5512C92.9011 11.4806 92.2633 12.3999 91.6062 13.3053C91.5251 13.4171 91.3688 13.4419 91.257 13.3608C91.1453 13.2797 91.1204 13.1234 91.2015 13.0117C91.8545 12.112 92.4888 11.1978 93.1087 10.2728ZM42.1716 12.4336C42.1921 12.2971 42.3195 12.203 42.456 12.2235C42.5925 12.2441 42.6866 12.3714 42.6661 12.5079C42.4985 13.6225 42.4666 14.7556 42.5955 15.8546C42.6116 15.9917 42.5134 16.1159 42.3763 16.132C42.2392 16.1481 42.115 16.0499 42.0989 15.9128C41.9643 14.7654 41.9982 13.5876 42.1716 12.4336ZM4.61203 13.6306C4.52529 13.5232 4.54207 13.3658 4.6495 13.2791C4.75693 13.1923 4.91433 13.2091 5.00106 13.3165C5.41079 13.8241 5.85698 14.3193 6.34307 14.8015C6.85283 15.3073 7.39019 15.7948 7.95201 16.263C8.05808 16.3514 8.07241 16.509 7.98401 16.6151C7.89562 16.7211 7.73798 16.7355 7.63191 16.6471C7.05945 16.17 6.51135 15.6728 5.99092 15.1565C5.4919 14.6614 5.03338 14.1525 4.61203 13.6306ZM89.1815 15.6649C89.2678 15.5571 89.4251 15.5397 89.5329 15.6261C89.6406 15.7124 89.658 15.8697 89.5717 15.9775C89.2216 16.4144 88.8657 16.8469 88.5033 17.2745C88.0711 17.7844 87.6307 18.2818 87.1807 18.7648C87.0865 18.8658 86.9284 18.8714 86.8273 18.7772C86.7263 18.6831 86.7207 18.5249 86.8149 18.4239C87.2591 17.9471 87.6943 17.4557 88.1219 16.9512C88.4812 16.5273 88.8342 16.0984 89.1815 15.6649ZM45.4963 17.119C45.5924 17.0199 45.7507 17.0175 45.8498 17.1136C45.949 17.2097 45.9514 17.368 45.8553 17.4671C45.3403 17.9981 44.8192 18.4791 44.3069 18.898C44.1036 19.0643 43.8978 19.2259 43.6896 19.3828C43.8945 19.7552 44.1283 20.1134 44.3925 20.4546C44.723 20.8815 45.0554 21.2497 45.3981 21.5747C45.4983 21.6697 45.5025 21.828 45.4074 21.9281C45.3124 22.0283 45.1542 22.0325 45.054 21.9375C44.6914 21.5936 44.342 21.2061 43.9971 20.7607C43.7302 20.4159 43.4927 20.0551 43.2833 19.6811C43.1173 19.7997 42.9498 19.9156 42.781 20.0287C42.6663 20.1055 42.511 20.0748 42.4342 19.9601C42.3573 19.8454 42.388 19.6901 42.5027 19.6133C42.6874 19.4896 42.8703 19.3625 43.0514 19.232C43.0153 19.1166 43.0675 18.9888 43.1794 18.9335C43.2633 18.8921 43.3592 18.902 43.4313 18.9513C43.6198 18.8084 43.8062 18.6617 43.9904 18.511C44.4864 18.1053 44.9935 17.6376 45.4963 17.119ZM11.2431 19.2074C11.1248 19.1361 11.0868 18.9824 11.1581 18.8642C11.2294 18.746 11.3831 18.7079 11.5013 18.7792C12.7341 19.5228 14.033 20.1887 15.3757 20.7702C15.5024 20.8251 15.5606 20.9723 15.5057 21.099C15.4508 21.2257 15.3036 21.2839 15.1769 21.229C13.8146 20.6389 12.4957 19.9629 11.2431 19.2074ZM83.975 21.139C84.0807 21.0502 84.2384 21.0639 84.3272 21.1696C84.4161 21.2753 84.4024 21.433 84.2967 21.5218C83.2727 22.3822 82.1946 23.1648 81.0493 23.8525C80.9309 23.9236 80.7774 23.8853 80.7063 23.7669C80.6352 23.6485 80.6735 23.4949 80.7919 23.4239C81.9123 22.751 82.9691 21.9843 83.975 21.139ZM39.2524 21.3863C39.3789 21.331 39.5263 21.3887 39.5816 21.5152C39.6369 21.6418 39.5791 21.7891 39.4526 21.8444C38.2941 22.3506 37.0959 22.7589 35.8733 23.0807C35.7398 23.1158 35.603 23.0361 35.5679 22.9025C35.5328 22.769 35.6125 22.6323 35.746 22.5971C36.9458 22.2814 38.1195 21.8813 39.2524 21.3863ZM19.3377 22.7254C19.2051 22.687 19.1288 22.5483 19.1672 22.4157C19.2056 22.2831 19.3443 22.2067 19.4769 22.2452C20.8817 22.6523 22.3072 22.9686 23.7311 23.1878C23.8676 23.2088 23.9612 23.3365 23.9402 23.4729C23.9192 23.6094 23.7915 23.703 23.6551 23.682C22.2093 23.4594 20.7627 23.1384 19.3377 22.7254ZM47.6671 23.7006C47.5431 23.6399 47.4917 23.4902 47.5524 23.3662C47.6131 23.2421 47.7628 23.1908 47.8868 23.2514C48.3188 23.4627 48.7814 23.6644 49.2841 23.8713C49.8539 24.1056 50.4351 24.3225 51.0257 24.523C51.1565 24.5674 51.2265 24.7093 51.1821 24.8401C51.1377 24.9708 50.9958 25.0408 50.865 24.9964C50.265 24.7928 49.6739 24.5723 49.0939 24.3337C48.5857 24.1246 48.1123 23.9184 47.6671 23.7006ZM32.0964 23.3007C32.2334 23.2832 32.3586 23.3799 32.3762 23.5169C32.3937 23.6538 32.2969 23.7791 32.16 23.7966C31.5349 23.8767 30.9073 23.9383 30.2793 23.9828C29.5497 24.0344 28.8105 24.056 28.0648 24.0486C27.9268 24.0472 27.816 23.9342 27.8173 23.7961C27.8187 23.6581 27.9317 23.5473 28.0698 23.5486C28.8025 23.5559 29.5283 23.5346 30.244 23.484C30.863 23.4402 31.4811 23.3795 32.0964 23.3007ZM77.2719 25.1282C77.4012 25.0797 77.5453 25.1452 77.5938 25.2745C77.6423 25.4038 77.5768 25.5479 77.4475 25.5964C76.8305 25.8278 76.1954 26.0337 75.5409 26.2122C74.6507 26.455 73.6691 26.6473 72.6444 26.7965C72.5078 26.8164 72.3809 26.7218 72.361 26.5852C72.3411 26.4485 72.4357 26.3216 72.5724 26.3017C73.5825 26.1546 74.5435 25.966 75.4094 25.7298C76.0489 25.5554 76.6693 25.3543 77.2719 25.1282ZM54.5013 26.0134C54.3666 25.983 54.2821 25.8491 54.3126 25.7144C54.3431 25.5798 54.4769 25.4953 54.6116 25.5257C55.8213 25.7994 57.0499 26.0185 58.2812 26.1915C58.4179 26.2107 58.5132 26.3371 58.494 26.4738C58.4748 26.6106 58.3484 26.7058 58.2116 26.6866C56.9682 26.5119 55.7259 26.2904 54.5013 26.0134ZM61.9583 27.0811C61.8206 27.0712 61.7171 26.9514 61.7271 26.8137C61.7371 26.676 61.8568 26.5725 61.9945 26.5825C62.6207 26.6279 63.2431 26.6634 63.8596 26.6901C64.7563 26.7289 65.7427 26.7445 66.7708 26.73C66.9089 26.7281 67.0224 26.8384 67.0243 26.9765C67.0263 27.1146 66.9159 27.2281 66.7779 27.23C65.7404 27.2446 64.7445 27.2289 63.838 27.1896C63.2169 27.1627 62.5896 27.127 61.9583 27.0811Z" fill="white"/>
</g>
<defs>
<clipPath id="clip0_56_2">
<rect width="102" height="28" fill="white"/>
</clipPath>
</defs>
</svg>
