<svg width="257" height="300" viewBox="0 0 257 300" fill="none" xmlns="http://www.w3.org/2000/svg">
<g clip-path="url(#clip0_93_34)">
<g filter="url(#filter0_i_93_34)">
<path d="M300.415 105.414C305.972 110.971 308.143 119.072 306.109 126.664L276.707 236.391C274.673 243.982 268.743 249.913 261.151 251.947L151.425 281.348C143.833 283.382 135.733 281.211 130.175 275.654L49.8499 195.329C44.2923 189.771 42.1218 181.67 44.1559 174.078L73.5572 64.3518C75.5916 56.7602 81.5212 50.83 89.1128 48.7956L198.839 19.3946C206.431 17.3604 214.532 19.5311 220.089 25.0886L300.415 105.414ZM209.285 55.5722C205.107 51.394 199.017 49.7614 193.309 51.2906L110.817 73.3944C105.109 74.9238 100.651 79.3826 99.122 85.0902L77.0181 167.582C75.489 173.289 77.1207 179.379 81.2987 183.557L91.6609 193.919C92.4188 194.677 93.5234 194.973 94.5586 194.695L138.678 182.874C141.347 182.159 144.239 179.462 145.138 176.85L159.095 136.315C159.992 133.711 158.569 132.173 155.911 132.876L123.063 141.567C120.405 142.27 118.981 140.733 119.878 138.128L129.98 108.787C130.88 106.175 133.772 103.478 136.44 102.763L226.09 78.7415C228.321 78.1438 229.068 75.3554 227.435 73.7224L209.285 55.5722ZM273.954 131.936C275.483 126.228 273.851 120.138 269.673 115.96L260.468 106.754C259.712 105.999 258.612 105.702 257.579 105.975L205.13 119.853C202.458 120.56 199.554 123.263 198.652 125.882L184.757 166.234C183.858 168.846 185.292 170.383 187.96 169.669L226.614 159.311C229.281 158.597 230.716 160.134 229.817 162.746L219.72 192.069C218.821 194.681 215.929 197.378 213.26 198.093L125.669 221.563C123.439 222.161 122.691 224.949 124.324 226.582L141.687 243.945C145.865 248.124 151.955 249.756 157.663 248.227L240.155 226.123C245.863 224.594 250.32 220.135 251.85 214.427L273.954 131.936Z" fill="#202020"/>
</g>
</g>
<defs>
<filter id="filter0_i_93_34" x="43.4058" y="18.6445" width="263.453" height="267.453" filterUnits="userSpaceOnUse" color-interpolation-filters="sRGB">
<feFlood flood-opacity="0" result="BackgroundImageFix"/>
<feBlend mode="normal" in="SourceGraphic" in2="BackgroundImageFix" result="shape"/>
<feColorMatrix in="SourceAlpha" type="matrix" values="0 0 0 0 0 0 0 0 0 0 0 0 0 0 0 0 0 0 127 0" result="hardAlpha"/>
<feOffset dy="4"/>
<feGaussianBlur stdDeviation="2"/>
<feComposite in2="hardAlpha" operator="arithmetic" k2="-1" k3="1"/>
<feColorMatrix type="matrix" values="0 0 0 0 0 0 0 0 0 0 0 0 0 0 0 0 0 0 0.58 0"/>
<feBlend mode="normal" in2="shape" result="effect1_innerShadow_93_34"/>
</filter>
<clipPath id="clip0_93_34">
<rect width="257" height="300" fill="white"/>
</clipPath>
</defs>
</svg>
