<svg width="272" height="241" viewBox="0 0 272 241" fill="none" xmlns="http://www.w3.org/2000/svg">
<g filter="url(#filter0_i_85_178)">
<path d="M268.246 109.378C272.176 116.185 272.176 124.571 268.246 131.378L211.447 229.756C207.518 236.562 200.254 240.756 192.395 240.756H78.7981C70.9386 240.756 63.6762 236.562 59.7463 229.756L2.94747 131.378C-0.9824 124.571 -0.9824 116.185 2.94747 109.378L59.7463 11C63.6762 4.19361 70.9386 0.000151244 78.7981 0H192.395C200.254 5.80834e-05 207.518 4.19344 211.447 11L268.246 109.378ZM193.121 37.6484C190.167 32.5312 184.707 29.3781 178.798 29.3779H93.3957C87.4868 29.378 82.027 32.5312 79.0725 37.6484L36.3713 111.608C33.4169 116.726 33.4169 123.03 36.3713 128.147L43.6986 140.838C44.2345 141.766 45.2249 142.338 46.2967 142.338H91.9729C94.7353 142.338 98.2269 140.482 99.7717 138.191L123.744 102.651C125.285 100.367 124.307 98.5125 121.558 98.5039L87.5803 98.3975C84.831 98.3888 83.8531 96.5351 85.3938 94.251L102.746 68.5244C104.291 66.2344 107.783 64.3779 110.545 64.3779H203.358C205.667 64.3779 207.11 61.8779 205.956 59.8779L193.121 37.6484ZM235.822 128.147C238.777 123.03 238.777 116.726 235.822 111.608L229.313 100.334C228.779 99.4082 227.793 98.8368 226.725 98.8335L172.471 98.6641C169.707 98.6554 166.201 100.515 164.653 102.812L140.788 138.191C139.244 140.482 140.231 142.338 142.993 142.338H183.01C185.772 142.338 186.759 144.195 185.215 146.485L167.873 172.195C166.329 174.485 162.836 176.343 160.073 176.343H69.3936C67.0842 176.343 65.6408 178.843 66.7955 180.843L79.0725 202.107C82.027 207.225 87.4868 210.378 93.3957 210.378H178.798C184.707 210.378 190.167 207.225 193.121 202.107L235.822 128.147Z" fill="white"/>
</g>
<defs>
<filter id="filter0_i_85_178" x="0.00012207" y="0" width="271.193" height="244.756" filterUnits="userSpaceOnUse" color-interpolation-filters="sRGB">
<feFlood flood-opacity="0" result="BackgroundImageFix"/>
<feBlend mode="normal" in="SourceGraphic" in2="BackgroundImageFix" result="shape"/>
<feColorMatrix in="SourceAlpha" type="matrix" values="0 0 0 0 0 0 0 0 0 0 0 0 0 0 0 0 0 0 127 0" result="hardAlpha"/>
<feOffset dy="4"/>
<feGaussianBlur stdDeviation="2"/>
<feComposite in2="hardAlpha" operator="arithmetic" k2="-1" k3="1"/>
<feColorMatrix type="matrix" values="0 0 0 0 0 0 0 0 0 0 0 0 0 0 0 0 0 0 0.58 0"/>
<feBlend mode="normal" in2="shape" result="effect1_innerShadow_85_178"/>
</filter>
</defs>
</svg>
