<svg width="257" height="300" viewBox="0 0 257 300" fill="none" xmlns="http://www.w3.org/2000/svg">
<g clip-path="url(#clip0_93_33)">
<g filter="url(#filter0_i_93_33)">
<path d="M300.462 105.414C306.02 110.971 308.19 119.072 306.156 126.664L276.755 236.391C274.721 243.982 268.79 249.913 261.198 251.947L151.473 281.348C143.881 283.382 135.781 281.211 130.223 275.654L49.8973 195.329C44.3396 189.771 42.1691 181.67 44.2033 174.078L73.6046 64.3518C75.6391 56.76 81.5693 50.8296 89.1612 48.7954L198.886 19.3946C206.478 17.3605 214.579 19.5312 220.137 25.0886L300.462 105.414ZM209.332 55.5722C205.154 51.394 199.064 49.7615 193.356 51.2906L110.864 73.3944C105.157 74.9238 100.699 79.3827 99.1694 85.0902L77.0655 167.582C75.5363 173.289 77.168 179.379 81.3461 183.557L91.7083 193.919C92.4662 194.677 93.5708 194.973 94.606 194.695L138.726 182.874C141.394 182.159 144.286 179.462 145.186 176.85L159.143 136.316C160.04 133.711 158.616 132.174 155.958 132.877L123.11 141.567C120.452 142.27 119.028 140.733 119.925 138.128L130.028 108.787C130.927 106.175 133.82 103.478 136.488 102.763L226.138 78.7415C228.369 78.1438 229.116 75.3554 227.483 73.7224L209.332 55.5722ZM274.001 131.936C275.53 126.228 273.899 120.138 269.721 115.96L260.516 106.755C259.761 105.999 258.66 105.703 257.627 105.976L205.177 119.853C202.505 120.56 199.601 123.264 198.699 125.883L184.805 166.234C183.905 168.846 185.34 170.383 188.008 169.668L226.661 159.311C229.329 158.597 230.763 160.135 229.864 162.747L219.768 192.07C218.869 194.682 215.975 197.379 213.307 198.094L125.717 221.564C123.486 222.161 122.739 224.95 124.372 226.583L141.735 243.945C145.913 248.124 152.003 249.756 157.71 248.227L240.203 226.123C245.91 224.594 250.368 220.135 251.897 214.427L274.001 131.936Z" fill="white"/>
</g>
<path d="M300.462 105.414L300.816 105.06L300.816 105.06L300.462 105.414ZM306.156 126.664L306.639 126.794L306.639 126.794L306.156 126.664ZM276.755 236.391L277.238 236.52L277.238 236.52L276.755 236.391ZM261.198 251.947L261.328 252.43L261.328 252.43L261.198 251.947ZM130.223 275.654L129.869 276.007L129.869 276.007L130.223 275.654ZM49.8973 195.329L49.5437 195.682L49.8973 195.329ZM44.2033 174.078L43.7203 173.949L44.2033 174.078ZM73.6046 64.3518L73.1217 64.2223L73.1217 64.2223L73.6046 64.3518ZM89.1612 48.7954L89.0318 48.3124L89.1612 48.7954ZM198.886 19.3946L198.757 18.9117L198.757 18.9117L198.886 19.3946ZM220.137 25.0886L220.49 24.7351L220.49 24.735L220.137 25.0886ZM209.332 55.5722L208.979 55.9257L208.979 55.9257L209.332 55.5722ZM193.356 51.2906L193.227 50.8076L193.227 50.8077L193.356 51.2906ZM110.864 73.3944L110.735 72.9114L110.864 73.3944ZM99.1694 85.0902L98.6865 84.9608L98.6865 84.9608L99.1694 85.0902ZM77.0655 167.582L76.5825 167.452L76.5825 167.452L77.0655 167.582ZM81.3461 183.557L80.9926 183.911L80.9926 183.911L81.3461 183.557ZM138.726 182.874L138.855 183.357L138.726 182.874ZM145.186 176.85L144.713 176.687L145.186 176.85ZM159.143 136.316L159.616 136.479L159.616 136.479L159.143 136.316ZM155.958 132.877L156.086 133.36L156.086 133.36L155.958 132.877ZM123.11 141.567L122.982 141.084L122.982 141.084L123.11 141.567ZM119.925 138.128L120.398 138.291L119.925 138.128ZM130.028 108.787L129.555 108.624L129.555 108.624L130.028 108.787ZM274.001 131.936L274.484 132.065L274.484 132.065L274.001 131.936ZM269.721 115.96L269.367 116.314L269.367 116.314L269.721 115.96ZM205.177 119.853L205.049 119.37L205.049 119.37L205.177 119.853ZM198.699 125.883L199.172 126.046L199.172 126.046L198.699 125.883ZM184.805 166.234L184.332 166.071L184.805 166.234ZM188.008 169.668L188.137 170.151L188.008 169.668ZM226.661 159.311L226.532 158.828L226.532 158.828L226.661 159.311ZM229.864 162.747L230.337 162.91L230.337 162.91L229.864 162.747ZM219.768 192.07L220.241 192.233L220.241 192.233L219.768 192.07ZM213.307 198.094L213.436 198.577L213.437 198.577L213.307 198.094ZM141.735 243.945L141.381 244.299L141.735 243.945ZM157.71 248.227L157.84 248.71L157.71 248.227ZM240.203 226.123L240.332 226.606L240.332 226.606L240.203 226.123ZM251.897 214.427L251.414 214.298L251.897 214.427ZM124.372 226.583L124.019 226.936L124.372 226.583ZM260.516 106.755L260.163 107.108L260.516 106.755ZM257.627 105.976L257.755 106.459L257.627 105.976ZM227.483 73.7224L227.129 74.076L227.483 73.7224ZM91.7083 193.919L91.3548 194.273L91.7083 193.919ZM300.462 105.414L300.109 105.767C305.54 111.199 307.661 119.115 305.673 126.535L306.156 126.664L306.639 126.794C308.72 119.029 306.5 110.744 300.816 105.06L300.462 105.414ZM306.156 126.664L305.673 126.535L276.272 236.261L276.755 236.391L277.238 236.52L306.639 126.794L306.156 126.664ZM276.755 236.391L276.272 236.261C274.284 243.68 268.488 249.476 261.069 251.464L261.198 251.947L261.328 252.43C269.092 250.349 275.157 244.284 277.238 236.52L276.755 236.391ZM261.198 251.947L261.069 251.464L151.344 280.865L151.473 281.348L151.603 281.831L261.328 252.43L261.198 251.947ZM151.473 281.348L151.344 280.865C143.925 282.853 136.008 280.731 130.576 275.3L130.223 275.654L129.869 276.007C135.553 281.691 143.838 283.911 151.603 281.831L151.473 281.348ZM130.223 275.654L130.576 275.3L50.2509 194.975L49.8973 195.329L49.5437 195.682L129.869 276.007L130.223 275.654ZM49.8973 195.329L50.2509 194.975C44.8195 189.544 42.6983 181.627 44.6862 174.208L44.2033 174.078L43.7203 173.949C41.6399 181.713 43.8598 189.998 49.5437 195.682L49.8973 195.329ZM44.2033 174.078L44.6862 174.208L74.0876 64.4812L73.6046 64.3518L73.1217 64.2223L43.7203 173.949L44.2033 174.078ZM73.6046 64.3518L74.0876 64.4812C76.0758 57.062 81.8713 51.2663 89.2906 49.2783L89.1612 48.7954L89.0318 48.3124C81.2674 50.3929 75.2024 56.4581 73.1217 64.2223L73.6046 64.3518ZM89.1612 48.7954L89.2906 49.2783L199.016 19.8776L198.886 19.3946L198.757 18.9117L89.0318 48.3124L89.1612 48.7954ZM198.886 19.3946L199.016 19.8776C206.435 17.8897 214.352 20.011 219.783 25.4422L220.137 25.0886L220.49 24.735C214.806 19.0513 206.521 16.8313 198.757 18.9117L198.886 19.3946ZM220.137 25.0886L219.783 25.4422L300.109 105.767L300.462 105.414L300.816 105.06L220.49 24.7351L220.137 25.0886ZM209.332 55.5722L209.686 55.2186C205.381 50.9142 199.107 49.2323 193.227 50.8076L193.356 51.2906L193.486 51.7736C199.021 50.2907 204.927 51.8738 208.979 55.9257L209.332 55.5722ZM193.356 51.2906L193.227 50.8077L110.735 72.9114L110.864 73.3944L110.993 73.8773L193.486 51.7736L193.356 51.2906ZM110.864 73.3944L110.735 72.9114C104.855 74.4871 100.262 79.0808 98.6865 84.9608L99.1694 85.0902L99.6524 85.2196C101.136 79.6846 105.459 75.3605 110.993 73.8773L110.864 73.3944ZM99.1694 85.0902L98.6865 84.9608L76.5825 167.452L77.0655 167.582L77.5485 167.711L99.6524 85.2196L99.1694 85.0902ZM77.0655 167.582L76.5825 167.452C75.0071 173.333 76.6882 179.606 80.9926 183.911L81.3461 183.557L81.6997 183.204C77.6479 179.152 76.0655 173.246 77.5485 167.711L77.0655 167.582ZM81.3461 183.557L80.9926 183.911L91.3548 194.273L91.7083 193.919L92.0619 193.565L81.6997 183.204L81.3461 183.557ZM94.606 194.695L94.7354 195.178L138.855 183.357L138.726 182.874L138.596 182.391L94.4766 194.212L94.606 194.695ZM138.726 182.874L138.855 183.357C140.288 182.973 141.748 182.069 142.96 180.939C144.172 179.809 145.175 178.416 145.659 177.013L145.186 176.85L144.713 176.687C144.297 177.896 143.404 179.157 142.278 180.207C141.152 181.258 139.832 182.06 138.596 182.391L138.726 182.874ZM145.186 176.85L145.659 177.013L159.616 136.479L159.143 136.316L158.67 136.153L144.713 176.687L145.186 176.85ZM159.143 136.316L159.616 136.479C160.094 135.09 160.005 133.83 159.25 133.016C158.496 132.202 157.248 132.019 155.83 132.394L155.958 132.877L156.086 133.36C157.326 133.032 158.119 133.266 158.517 133.696C158.915 134.126 159.089 134.937 158.67 136.153L159.143 136.316ZM155.958 132.877L155.83 132.394L122.982 141.084L123.11 141.567L123.238 142.051L156.086 133.36L155.958 132.877ZM123.11 141.567L122.982 141.084C121.742 141.412 120.949 141.178 120.551 140.748C120.153 140.318 119.979 139.507 120.398 138.291L119.925 138.128L119.452 137.965C118.974 139.354 119.064 140.614 119.818 141.428C120.572 142.243 121.821 142.426 123.238 142.051L123.11 141.567ZM119.925 138.128L120.398 138.291L130.501 108.95L130.028 108.787L129.555 108.624L119.452 137.965L119.925 138.128ZM130.028 108.787L130.501 108.95C130.917 107.741 131.809 106.48 132.936 105.429C134.062 104.379 135.382 103.577 136.617 103.246L136.488 102.763L136.358 102.28C134.925 102.664 133.465 103.568 132.254 104.698C131.042 105.828 130.038 107.221 129.555 108.624L130.028 108.787ZM136.488 102.763L136.617 103.246L226.267 79.2245L226.138 78.7415L226.008 78.2585L136.358 102.28L136.488 102.763ZM227.483 73.7224L227.836 73.3688L209.686 55.2186L209.332 55.5722L208.979 55.9257L227.129 74.076L227.483 73.7224ZM274.001 131.936L274.484 132.065C276.059 126.185 274.378 119.911 270.074 115.607L269.721 115.96L269.367 116.314C273.419 120.366 275.001 126.271 273.518 131.806L274.001 131.936ZM269.721 115.96L270.074 115.607L260.87 106.401L260.516 106.755L260.163 107.108L269.367 116.314L269.721 115.96ZM257.627 105.976L257.499 105.493L205.049 119.37L205.177 119.853L205.305 120.337L257.755 106.459L257.627 105.976ZM205.177 119.853L205.049 119.37C203.614 119.75 202.149 120.654 200.934 121.785C199.718 122.917 198.71 124.314 198.226 125.72L198.699 125.883L199.172 126.046C199.589 124.833 200.485 123.569 201.615 122.517C202.745 121.465 204.069 120.664 205.305 120.337L205.177 119.853ZM198.699 125.883L198.226 125.72L184.332 166.071L184.805 166.234L185.278 166.397L199.172 126.046L198.699 125.883ZM184.805 166.234L184.332 166.071C183.853 167.463 183.944 168.726 184.703 169.54C185.462 170.354 186.715 170.533 188.137 170.151L188.008 169.668L187.878 169.186C186.632 169.519 185.834 169.287 185.434 168.858C185.034 168.429 184.858 167.617 185.278 166.397L184.805 166.234ZM188.008 169.668L188.137 170.151L226.79 159.794L226.661 159.311L226.532 158.828L187.878 169.186L188.008 169.668ZM226.661 159.311L226.79 159.794C228.036 159.461 228.834 159.693 229.235 160.123C229.635 160.552 229.811 161.365 229.392 162.584L229.864 162.747L230.337 162.91C230.816 161.517 230.725 160.255 229.966 159.441C229.207 158.627 227.954 158.447 226.532 158.828L226.661 159.311ZM229.864 162.747L229.392 162.584L219.295 191.907L219.768 192.07L220.241 192.233L230.337 162.91L229.864 162.747ZM219.768 192.07L219.295 191.907C218.879 193.116 217.986 194.377 216.86 195.428C215.733 196.478 214.413 197.28 213.178 197.611L213.307 198.094L213.437 198.577C214.87 198.193 216.33 197.289 217.542 196.159C218.754 195.029 219.758 193.636 220.241 192.233L219.768 192.07ZM213.307 198.094L213.178 197.611L125.588 221.081L125.717 221.564L125.846 222.047L213.436 198.577L213.307 198.094ZM124.372 226.583L124.019 226.936L141.381 244.299L141.735 243.945L142.088 243.592L124.726 226.229L124.372 226.583ZM141.735 243.945L141.381 244.299C145.686 248.603 151.96 250.285 157.84 248.71L157.71 248.227L157.581 247.744C152.046 249.227 146.14 247.644 142.088 243.592L141.735 243.945ZM157.71 248.227L157.84 248.71L240.332 226.606L240.203 226.123L240.073 225.64L157.581 247.744L157.71 248.227ZM240.203 226.123L240.332 226.606C246.212 225.03 250.805 220.437 252.38 214.557L251.897 214.427L251.414 214.298C249.931 219.833 245.608 224.157 240.073 225.64L240.203 226.123ZM251.897 214.427L252.38 214.557L274.484 132.065L274.001 131.936L273.518 131.806L251.414 214.298L251.897 214.427ZM125.717 221.564L125.588 221.081C122.985 221.778 122.113 225.031 124.019 226.936L124.372 226.583L124.726 226.229C123.365 224.868 123.988 222.545 125.846 222.047L125.717 221.564ZM260.516 106.755L260.87 106.401C259.988 105.52 258.705 105.174 257.499 105.493L257.627 105.976L257.755 106.459C258.616 106.232 259.533 106.479 260.163 107.108L260.516 106.755ZM226.138 78.7415L226.267 79.2245C228.87 78.5271 229.741 75.274 227.836 73.3688L227.483 73.7224L227.129 74.076C228.49 75.4368 227.867 77.7604 226.008 78.2585L226.138 78.7415ZM91.7083 193.919L91.3548 194.273C92.239 195.157 93.5277 195.502 94.7354 195.178L94.606 194.695L94.4766 194.212C93.6139 194.444 92.6934 194.197 92.0619 193.565L91.7083 193.919Z" fill="#DDDDDD"/>
</g>
<defs>
<filter id="filter0_i_93_33" x="42.9531" y="18.1445" width="264.453" height="268.453" filterUnits="userSpaceOnUse" color-interpolation-filters="sRGB">
<feFlood flood-opacity="0" result="BackgroundImageFix"/>
<feBlend mode="normal" in="SourceGraphic" in2="BackgroundImageFix" result="shape"/>
<feColorMatrix in="SourceAlpha" type="matrix" values="0 0 0 0 0 0 0 0 0 0 0 0 0 0 0 0 0 0 127 0" result="hardAlpha"/>
<feOffset dy="4"/>
<feGaussianBlur stdDeviation="2"/>
<feComposite in2="hardAlpha" operator="arithmetic" k2="-1" k3="1"/>
<feColorMatrix type="matrix" values="0 0 0 0 0 0 0 0 0 0 0 0 0 0 0 0 0 0 0.58 0"/>
<feBlend mode="normal" in2="shape" result="effect1_innerShadow_93_33"/>
</filter>
<clipPath id="clip0_93_33">
<rect width="257" height="300" fill="white"/>
</clipPath>
</defs>
</svg>
