<svg width="272" height="241" viewBox="0 0 272 241" fill="none" xmlns="http://www.w3.org/2000/svg">
<g filter="url(#filter0_i_74_111)">
<path d="M2.94733 131.378C-0.982443 124.571 -0.982442 116.185 2.94733 109.378L59.7462 11C63.6761 4.19342 70.9392 2.90425e-05 78.7989 0H192.396C200.255 0.000150505 207.517 4.19359 211.447 11L268.246 109.378C272.176 116.185 272.176 124.571 268.246 131.378L211.447 229.756C207.517 236.562 200.255 240.756 192.396 240.756H78.7989C70.9392 240.756 63.6761 236.562 59.7462 229.756L2.94733 131.378ZM78.0723 203.107C81.0268 208.225 86.4867 211.378 92.3956 211.378H177.798C183.707 211.378 189.167 208.225 192.121 203.107L234.822 129.147C237.777 124.03 237.777 117.726 234.822 112.608L227.495 99.9179C226.959 98.9897 225.969 98.418 224.897 98.418H179.221C176.458 98.418 172.967 100.274 171.422 102.564L147.449 138.104C145.909 140.389 146.886 142.243 149.636 142.252L183.613 142.358C186.363 142.367 187.34 144.221 185.8 146.505L168.447 172.231C166.902 174.521 163.411 176.378 160.648 176.378H67.8359C65.5265 176.378 64.0831 178.878 65.2379 180.878L78.0723 203.107ZM35.3712 112.608C32.4169 117.726 32.4169 124.03 35.3712 129.147L41.8803 140.422C42.4145 141.348 43.4006 141.919 44.4691 141.922L98.7227 142.092C101.487 142.1 104.992 140.241 106.541 137.944L130.405 102.564C131.95 100.274 130.963 98.418 128.2 98.418H88.1837C85.4215 98.4178 84.4342 96.5605 85.9786 94.2705L103.32 68.5605C104.865 66.2704 108.358 64.4132 111.12 64.4131H201.8C204.109 64.4131 205.553 61.9131 204.398 59.9131L192.121 38.6484C189.167 33.5312 183.707 30.378 177.798 30.3779H92.3956C86.4867 30.3781 81.0268 33.5312 78.0723 38.6484L35.3712 112.608Z" fill="#111111"/>
</g>
<defs>
<filter id="filter0_i_74_111" x="0" y="0" width="271.194" height="244.756" filterUnits="userSpaceOnUse" color-interpolation-filters="sRGB">
<feFlood flood-opacity="0" result="BackgroundImageFix"/>
<feBlend mode="normal" in="SourceGraphic" in2="BackgroundImageFix" result="shape"/>
<feColorMatrix in="SourceAlpha" type="matrix" values="0 0 0 0 0 0 0 0 0 0 0 0 0 0 0 0 0 0 127 0" result="hardAlpha"/>
<feOffset dy="4"/>
<feGaussianBlur stdDeviation="2"/>
<feComposite in2="hardAlpha" operator="arithmetic" k2="-1" k3="1"/>
<feColorMatrix type="matrix" values="0 0 0 0 0 0 0 0 0 0 0 0 0 0 0 0 0 0 0.58 0"/>
<feBlend mode="normal" in2="shape" result="effect1_innerShadow_74_111"/>
</filter>
</defs>
</svg>
