<svg width="257" height="300" viewBox="0 0 257 300" fill="none" xmlns="http://www.w3.org/2000/svg">
<g clip-path="url(#clip0_93_34)">
<mask id="path-1-inside-1_93_34" fill="white">
<path d="M300.415 105.414C305.972 110.971 308.143 119.072 306.109 126.664L276.708 236.391C274.673 243.982 268.743 249.913 261.151 251.947L151.425 281.348C143.833 283.382 135.733 281.211 130.175 275.654L49.8499 195.329C44.2923 189.771 42.1218 181.67 44.1559 174.078L73.5573 64.3518C75.5916 56.7602 81.5213 50.83 89.1128 48.7956L198.839 19.3946C206.431 17.3604 214.532 19.5311 220.089 25.0886L300.415 105.414ZM209.285 55.5722C205.107 51.394 199.017 49.7614 193.309 51.2906L110.817 73.3944C105.109 74.9238 100.651 79.3826 99.122 85.0902L77.0181 167.582C75.489 173.289 77.1207 179.379 81.2988 183.557L91.6609 193.919C92.4188 194.677 93.5234 194.973 94.5587 194.695L138.678 182.874C141.347 182.159 144.239 179.462 145.138 176.85L159.096 136.315C159.992 133.71 158.568 132.173 155.91 132.876L123.063 141.567C120.405 142.27 118.981 140.733 119.878 138.128L129.98 108.787C130.88 106.175 133.772 103.478 136.44 102.763L226.09 78.7415C228.321 78.1438 229.068 75.3554 227.435 73.7224L209.285 55.5722ZM273.954 131.936C275.483 126.228 273.851 120.138 269.673 115.96L260.468 106.754C259.712 105.999 258.612 105.702 257.579 105.975L205.13 119.853C202.458 120.56 199.553 123.263 198.651 125.882L184.757 166.234C183.858 168.846 185.292 170.383 187.961 169.668L226.614 159.311C229.282 158.597 230.716 160.134 229.817 162.746L219.72 192.069C218.821 194.681 215.929 197.378 213.26 198.093L125.669 221.563C123.439 222.161 122.692 224.949 124.324 226.582L141.687 243.945C145.865 248.124 151.955 249.756 157.663 248.227L240.155 226.123C245.863 224.594 250.32 220.135 251.85 214.427L273.954 131.936Z"/>
</mask>
<g filter="url(#filter0_i_93_34)">
<path d="M300.415 105.414C305.972 110.971 308.143 119.072 306.109 126.664L276.708 236.391C274.673 243.982 268.743 249.913 261.151 251.947L151.425 281.348C143.833 283.382 135.733 281.211 130.175 275.654L49.8499 195.329C44.2923 189.771 42.1218 181.67 44.1559 174.078L73.5573 64.3518C75.5916 56.7602 81.5213 50.83 89.1128 48.7956L198.839 19.3946C206.431 17.3604 214.532 19.5311 220.089 25.0886L300.415 105.414ZM209.285 55.5722C205.107 51.394 199.017 49.7614 193.309 51.2906L110.817 73.3944C105.109 74.9238 100.651 79.3826 99.122 85.0902L77.0181 167.582C75.489 173.289 77.1207 179.379 81.2988 183.557L91.6609 193.919C92.4188 194.677 93.5234 194.973 94.5587 194.695L138.678 182.874C141.347 182.159 144.239 179.462 145.138 176.85L159.096 136.315C159.992 133.71 158.568 132.173 155.91 132.876L123.063 141.567C120.405 142.27 118.981 140.733 119.878 138.128L129.98 108.787C130.88 106.175 133.772 103.478 136.44 102.763L226.09 78.7415C228.321 78.1438 229.068 75.3554 227.435 73.7224L209.285 55.5722ZM273.954 131.936C275.483 126.228 273.851 120.138 269.673 115.96L260.468 106.754C259.712 105.999 258.612 105.702 257.579 105.975L205.13 119.853C202.458 120.56 199.553 123.263 198.651 125.882L184.757 166.234C183.858 168.846 185.292 170.383 187.961 169.668L226.614 159.311C229.282 158.597 230.716 160.134 229.817 162.746L219.72 192.069C218.821 194.681 215.929 197.378 213.26 198.093L125.669 221.563C123.439 222.161 122.692 224.949 124.324 226.582L141.687 243.945C145.865 248.124 151.955 249.756 157.663 248.227L240.155 226.123C245.863 224.594 250.32 220.135 251.85 214.427L273.954 131.936Z" fill="#202020"/>
</g>
<path d="M300.415 105.414L301.122 104.707L301.122 104.707L300.415 105.414ZM306.109 126.664L307.075 126.923L307.075 126.923L306.109 126.664ZM276.708 236.391L277.673 236.649L277.673 236.649L276.708 236.391ZM261.151 251.947L261.41 252.913L261.151 251.947ZM151.425 281.348L151.684 282.314L151.684 282.314L151.425 281.348ZM130.175 275.654L129.468 276.361L129.468 276.361L130.175 275.654ZM49.8499 195.329L49.1428 196.036L49.8499 195.329ZM44.1559 174.078L43.19 173.819L43.19 173.819L44.1559 174.078ZM73.5573 64.3518L72.5914 64.0929L72.5913 64.0929L73.5573 64.3518ZM89.1128 48.7956L88.854 47.8297L88.854 47.8297L89.1128 48.7956ZM220.089 25.0886L220.796 24.3815L220.796 24.3815L220.089 25.0886ZM209.285 55.5722L208.578 56.2793L208.578 56.2793L209.285 55.5722ZM193.309 51.2906L193.05 50.3247L193.05 50.3247L193.309 51.2906ZM110.817 73.3944L110.558 72.4284L110.558 72.4284L110.817 73.3944ZM99.122 85.0902L100.088 85.349L100.088 85.349L99.122 85.0902ZM77.0181 167.582L76.0522 167.323L76.0522 167.323L77.0181 167.582ZM81.2988 183.557L80.5916 184.265L80.5917 184.265L81.2988 183.557ZM138.678 182.874L138.937 183.839L138.678 182.874ZM145.138 176.85L146.084 177.176L146.084 177.175L145.138 176.85ZM159.096 136.315L160.041 136.641L160.041 136.641L159.096 136.315ZM155.91 132.876L155.655 131.909L155.655 131.909L155.91 132.876ZM123.063 141.567L123.319 142.534L123.319 142.534L123.063 141.567ZM119.878 138.128L118.932 137.802L118.932 137.802L119.878 138.128ZM129.98 108.787L129.035 108.461L129.035 108.461L129.98 108.787ZM136.44 102.763L136.182 101.797L136.182 101.797L136.44 102.763ZM273.954 131.936L274.92 132.194L274.92 132.194L273.954 131.936ZM269.673 115.96L270.38 115.253L269.673 115.96ZM205.13 119.853L205.386 120.82L205.386 120.82L205.13 119.853ZM198.651 125.882L197.706 125.557L197.706 125.557L198.651 125.882ZM184.757 166.234L183.812 165.908L183.812 165.909L184.757 166.234ZM187.961 169.668L188.219 170.634L188.219 170.634L187.961 169.668ZM226.614 159.311L226.355 158.345L226.355 158.346L226.614 159.311ZM229.817 162.746L230.762 163.071L230.762 163.071L229.817 162.746ZM219.72 192.069L220.666 192.395L219.72 192.069ZM213.26 198.093L213.519 199.059L213.519 199.059L213.26 198.093ZM141.687 243.945L140.98 244.652L140.98 244.652L141.687 243.945ZM157.663 248.227L157.922 249.193L157.922 249.193L157.663 248.227ZM240.155 226.123L240.414 227.089L240.414 227.089L240.155 226.123ZM251.85 214.427L252.816 214.686L252.816 214.686L251.85 214.427ZM124.324 226.582L123.617 227.289L124.324 226.582ZM260.468 106.754L261.175 106.047L260.468 106.754ZM257.579 105.975L257.835 106.942L257.579 105.975ZM226.09 78.7415L225.832 77.7756L226.09 78.7415ZM227.435 73.7224L226.728 74.4295L227.435 73.7224ZM91.6609 193.919L90.9539 194.626L91.6609 193.919ZM300.415 105.414L299.708 106.121C305.013 111.426 307.085 119.159 305.143 126.405L306.109 126.664L307.075 126.923C309.201 118.986 306.932 110.517 301.122 104.707L300.415 105.414ZM306.109 126.664L305.143 126.405L275.742 236.132L276.708 236.391L277.673 236.649L307.075 126.923L306.109 126.664ZM276.708 236.391L275.742 236.132C273.8 243.378 268.139 249.039 260.892 250.981L261.151 251.947L261.41 252.913C269.347 250.786 275.547 244.586 277.673 236.649L276.708 236.391ZM261.151 251.947L260.892 250.981L151.166 280.382L151.425 281.348L151.684 282.314L261.41 252.913L261.151 251.947ZM151.425 281.348L151.166 280.382C143.92 282.323 136.188 280.251 130.883 274.947L130.175 275.654L129.468 276.361C135.279 282.171 143.747 284.44 151.684 282.314L151.425 281.348ZM130.175 275.654L130.883 274.947L50.557 194.621L49.8499 195.329L49.1428 196.036L129.468 276.361L130.175 275.654ZM49.8499 195.329L50.557 194.621C45.252 189.316 43.1802 181.584 45.1218 174.337L44.1559 174.078L43.19 173.819C41.0634 181.756 43.3326 190.225 49.1428 196.036L49.8499 195.329ZM44.1559 174.078L45.1218 174.337L74.5232 64.6106L73.5573 64.3518L72.5913 64.0929L43.19 173.819L44.1559 174.078ZM73.5573 64.3518L74.5232 64.6106C76.4651 57.364 82.1252 51.7034 89.3717 49.7615L89.1128 48.7956L88.854 47.8297C80.9173 49.9566 74.7182 56.1563 72.5914 64.0929L73.5573 64.3518ZM89.1128 48.7956L89.3717 49.7615L199.098 20.3606L198.839 19.3946L198.58 18.4287L88.854 47.8297L89.1128 48.7956ZM198.839 19.3946L199.098 20.3606C206.344 18.4188 214.077 20.4908 219.382 25.7957L220.089 25.0886L220.796 24.3815C214.986 18.5714 206.517 16.302 198.58 18.4287L198.839 19.3946ZM220.089 25.0886L219.382 25.7957L299.708 106.121L300.415 105.414L301.122 104.707L220.796 24.3815L220.089 25.0886ZM209.285 55.5722L209.992 54.8651C205.561 50.4343 199.103 48.703 193.05 50.3247L193.309 51.2906L193.568 52.2565C198.93 50.8198 204.652 52.3536 208.578 56.2793L209.285 55.5722ZM193.309 51.2906L193.05 50.3247L110.558 72.4284L110.817 73.3944L111.075 74.3603L193.568 52.2565L193.309 51.2906ZM110.817 73.3944L110.558 72.4284C104.505 74.0504 99.7779 78.7788 98.1561 84.8314L99.122 85.0902L100.088 85.349C101.525 79.9864 105.713 75.7972 111.076 74.3603L110.817 73.3944ZM99.122 85.0902L98.1561 84.8314L76.0522 167.323L77.0181 167.582L77.9841 167.841L100.088 85.349L99.122 85.0902ZM77.0181 167.582L76.0522 167.323C74.4306 173.376 76.161 179.834 80.5916 184.265L81.2988 183.557L82.0059 182.85C78.0804 178.925 76.5474 173.203 77.9841 167.841L77.0181 167.582ZM81.2988 183.557L80.5917 184.265L90.9539 194.626L91.6609 193.919L92.368 193.212L82.0058 182.85L81.2988 183.557ZM94.5587 194.695L94.8175 195.661L138.937 183.839L138.678 182.874L138.42 181.908L94.2998 193.73L94.5587 194.695ZM138.678 182.874L138.937 183.839C140.469 183.429 141.999 182.474 143.254 181.304C144.508 180.135 145.567 178.675 146.084 177.176L145.138 176.85L144.193 176.524C143.81 177.637 142.973 178.831 141.89 179.842C140.806 180.852 139.556 181.603 138.42 181.908L138.678 182.874ZM145.138 176.85L146.084 177.175L160.041 136.641L159.096 136.315L158.15 135.99L144.193 176.524L145.138 176.85ZM159.096 136.315L160.041 136.641C160.549 135.166 160.501 133.682 159.57 132.676C158.637 131.668 157.161 131.511 155.655 131.909L155.91 132.876L156.166 133.843C157.318 133.538 157.883 133.798 158.102 134.035C158.323 134.273 158.539 134.86 158.15 135.99L159.096 136.315ZM155.91 132.876L155.655 131.909L122.807 140.601L123.063 141.567L123.319 142.534L156.166 133.843L155.91 132.876ZM123.063 141.567L122.807 140.601C121.656 140.905 121.091 140.646 120.871 140.409C120.651 140.171 120.434 139.584 120.823 138.453L119.878 138.128L118.932 137.802C118.425 139.277 118.472 140.761 119.404 141.768C120.337 142.775 121.812 142.933 123.319 142.534L123.063 141.567ZM119.878 138.128L120.823 138.454L130.926 109.112L129.98 108.787L129.035 108.461L118.932 137.802L119.878 138.128ZM129.98 108.787L130.926 109.112C131.309 108 132.146 106.805 133.229 105.795C134.313 104.785 135.563 104.034 136.699 103.729L136.44 102.763L136.182 101.797C134.65 102.208 133.12 103.162 131.865 104.332C130.611 105.502 129.551 106.962 129.035 108.461L129.98 108.787ZM136.44 102.763L136.699 103.729L226.349 79.7074L226.09 78.7415L225.832 77.7756L136.182 101.797L136.44 102.763ZM227.435 73.7224L228.142 73.0153L209.992 54.8651L209.285 55.5722L208.578 56.2793L226.728 74.4295L227.435 73.7224ZM273.954 131.936L274.92 132.194C276.541 126.142 274.811 119.684 270.38 115.253L269.673 115.96L268.966 116.667C272.891 120.593 274.425 126.315 272.988 131.677L273.954 131.936ZM269.673 115.96L270.38 115.253L261.175 106.047L260.468 106.754L259.761 107.461L268.966 116.667L269.673 115.96ZM257.579 105.975L257.323 105.009L204.874 118.887L205.13 119.853L205.386 120.82L257.835 106.942L257.579 105.975ZM205.13 119.853L204.874 118.887C203.339 119.293 201.804 120.248 200.546 121.419C199.287 122.59 198.223 124.053 197.706 125.557L198.651 125.882L199.597 126.208C199.981 125.092 200.821 123.895 201.908 122.883C202.995 121.871 204.249 121.121 205.386 120.82L205.13 119.853ZM198.651 125.882L197.706 125.557L183.812 165.908L184.757 166.234L185.703 166.56L199.597 126.208L198.651 125.882ZM184.757 166.234L183.812 165.909C183.303 167.387 183.352 168.875 184.29 169.881C185.228 170.886 186.709 171.039 188.219 170.634L187.961 169.668L187.702 168.703C186.544 169.013 185.974 168.754 185.753 168.517C185.531 168.279 185.313 167.693 185.703 166.56L184.757 166.234ZM187.961 169.668L188.219 170.634L226.872 160.277L226.614 159.311L226.355 158.346L187.702 168.703L187.961 169.668ZM226.614 159.311L226.872 160.277C228.03 159.967 228.6 160.226 228.821 160.463C229.043 160.701 229.261 161.287 228.871 162.42L229.817 162.746L230.762 163.071C231.271 161.593 231.222 160.105 230.284 159.099C229.346 158.094 227.865 157.941 226.355 158.345L226.614 159.311ZM229.817 162.746L228.871 162.42L218.775 191.744L219.72 192.069L220.666 192.395L230.762 163.071L229.817 162.746ZM219.72 192.069L218.775 191.744C218.392 192.856 217.555 194.051 216.472 195.061C215.388 196.071 214.138 196.822 213.001 197.127L213.26 198.093L213.519 199.059C215.051 198.648 216.581 197.693 217.836 196.524C219.09 195.354 220.149 193.894 220.666 192.395L219.72 192.069ZM213.26 198.093L213.002 197.127L125.411 220.597L125.669 221.563L125.928 222.529L213.519 199.059L213.26 198.093ZM124.324 226.582L123.617 227.289L140.98 244.652L141.687 243.945L142.394 243.238L125.032 225.875L124.324 226.582ZM141.687 243.945L140.98 244.652C145.411 249.083 151.869 250.815 157.922 249.193L157.663 248.227L157.404 247.261C152.042 248.698 146.32 247.164 142.394 243.238L141.687 243.945ZM157.663 248.227L157.922 249.193L240.414 227.089L240.155 226.123L239.896 225.157L157.404 247.261L157.663 248.227ZM240.155 226.123L240.414 227.089C246.467 225.467 251.194 220.739 252.816 214.686L251.85 214.427L250.884 214.169C249.447 219.531 245.259 223.72 239.896 225.157L240.155 226.123ZM251.85 214.427L252.816 214.686L274.92 132.194L273.954 131.936L272.988 131.677L250.884 214.169L251.85 214.427ZM125.669 221.563L125.411 220.597C122.436 221.394 121.44 225.112 123.617 227.289L124.324 226.582L125.032 225.875C123.943 224.786 124.441 222.927 125.928 222.529L125.669 221.563ZM260.468 106.754L261.175 106.047C260.167 105.04 258.7 104.644 257.323 105.009L257.579 105.975L257.835 106.942C258.523 106.76 259.257 106.958 259.761 107.461L260.468 106.754ZM226.09 78.7415L226.349 79.7074C229.324 78.9105 230.32 75.1926 228.142 73.0153L227.435 73.7224L226.728 74.4295C227.817 75.5182 227.319 77.3771 225.832 77.7756L226.09 78.7415ZM91.6609 193.919L90.9539 194.626C91.9644 195.637 93.4372 196.031 94.8175 195.661L94.5587 194.695L94.2998 193.73C93.6097 193.914 92.8733 193.717 92.368 193.212L91.6609 193.919Z" fill="#333333" mask="url(#path-1-inside-1_93_34)"/>
</g>
<defs>
<filter id="filter0_i_93_34" x="43.4059" y="18.6445" width="263.453" height="267.453" filterUnits="userSpaceOnUse" color-interpolation-filters="sRGB">
<feFlood flood-opacity="0" result="BackgroundImageFix"/>
<feBlend mode="normal" in="SourceGraphic" in2="BackgroundImageFix" result="shape"/>
<feColorMatrix in="SourceAlpha" type="matrix" values="0 0 0 0 0 0 0 0 0 0 0 0 0 0 0 0 0 0 127 0" result="hardAlpha"/>
<feOffset dy="4"/>
<feGaussianBlur stdDeviation="2"/>
<feComposite in2="hardAlpha" operator="arithmetic" k2="-1" k3="1"/>
<feColorMatrix type="matrix" values="0 0 0 0 0 0 0 0 0 0 0 0 0 0 0 0 0 0 0.58 0"/>
<feBlend mode="normal" in2="shape" result="effect1_innerShadow_93_34"/>
</filter>
<clipPath id="clip0_93_34">
<rect width="257" height="300" fill="white"/>
</clipPath>
</defs>
</svg>
