<svg width="257" height="270" viewBox="0 0 257 270" fill="none" xmlns="http://www.w3.org/2000/svg">
<g clip-path="url(#clip0_93_33)">
<g filter="url(#filter0_i_93_33)">
<path d="M300.462 105.414C306.02 110.972 308.19 119.072 306.156 126.664L276.755 236.391C274.72 243.982 268.79 249.913 261.198 251.947L151.473 281.348C143.881 283.382 135.78 281.211 130.222 275.654L49.897 195.329C44.3394 189.771 42.169 181.67 44.2029 174.078L73.6043 64.352C75.6387 56.7603 81.5691 50.83 89.1608 48.7956L198.886 19.3949C206.478 17.3607 214.579 19.5314 220.136 25.0889L300.462 105.414ZM209.332 55.5724C205.154 51.3942 199.064 49.7617 193.356 51.2909L110.864 73.3946C105.156 74.9241 100.698 79.383 99.1691 85.0905L77.0652 167.582C75.5361 173.29 77.1678 179.38 81.3458 183.558L91.708 193.919C92.4659 194.677 93.5705 194.973 94.6057 194.696L138.726 182.874C141.394 182.159 144.287 179.462 145.186 176.85L159.143 136.316C160.039 133.711 158.616 132.173 155.958 132.876L123.11 141.568C120.452 142.271 119.028 140.733 119.925 138.128L130.028 108.787C130.927 106.175 133.819 103.479 136.487 102.763L226.138 78.7418C228.368 78.1441 229.115 75.3556 227.482 73.7227L209.332 55.5724ZM274.001 131.936C275.53 126.228 273.898 120.139 269.72 115.96L260.515 106.754C259.759 105.999 258.659 105.702 257.626 105.975L205.177 119.854C202.505 120.561 199.601 123.263 198.699 125.882L184.805 166.234C183.906 168.846 185.34 170.383 188.008 169.668L226.662 159.311C229.329 158.597 230.763 160.135 229.864 162.746L219.767 192.069C218.868 194.681 215.976 197.379 213.308 198.094L125.717 221.564C123.486 222.162 122.739 224.95 124.372 226.583L141.734 243.946C145.912 248.124 152.002 249.756 157.71 248.227L240.202 226.123C245.91 224.594 250.367 220.135 251.897 214.428L274.001 131.936Z" fill="white"/>
</g>
<path d="M300.462 105.414L300.815 105.06L300.815 105.06L300.462 105.414ZM306.156 126.664L306.639 126.794L306.639 126.794L306.156 126.664ZM276.755 236.391L277.238 236.52L277.238 236.52L276.755 236.391ZM151.473 281.348L151.602 281.831L151.602 281.831L151.473 281.348ZM130.222 275.654L129.869 276.007L129.869 276.008L130.222 275.654ZM49.897 195.329L49.5434 195.682L49.5434 195.682L49.897 195.329ZM44.2029 174.078L43.72 173.949L43.72 173.949L44.2029 174.078ZM73.6043 64.352L73.1214 64.2226L73.1214 64.2226L73.6043 64.352ZM89.1608 48.7956L89.0314 48.3127L89.0314 48.3127L89.1608 48.7956ZM198.886 19.3949L199.015 19.8779L198.886 19.3949ZM220.136 25.0889L220.49 24.7353L220.49 24.7353L220.136 25.0889ZM209.332 55.5724L208.978 55.926L208.978 55.926L209.332 55.5724ZM193.356 51.2909L193.227 50.8079L193.227 50.8079L193.356 51.2909ZM110.864 73.3946L110.734 72.9117L110.734 72.9117L110.864 73.3946ZM99.1691 85.0905L99.6521 85.2199L99.6521 85.2199L99.1691 85.0905ZM77.0652 167.582L76.5822 167.453L76.5822 167.453L77.0652 167.582ZM81.3458 183.558L80.9922 183.911L80.9923 183.911L81.3458 183.558ZM145.186 176.85L145.659 177.013L145.659 177.013L145.186 176.85ZM159.143 136.316L159.615 136.478L159.615 136.478L159.143 136.316ZM155.958 132.876L155.83 132.393L155.83 132.393L155.958 132.876ZM123.11 141.568L123.238 142.051L123.238 142.051L123.11 141.568ZM119.925 138.128L119.452 137.965L119.452 137.965L119.925 138.128ZM130.028 108.787L129.555 108.624L129.555 108.624L130.028 108.787ZM136.487 102.763L136.358 102.28L136.358 102.28L136.487 102.763ZM274.001 131.936L274.484 132.065L274.484 132.065L274.001 131.936ZM269.72 115.96L269.367 116.314L269.367 116.314L269.72 115.96ZM205.177 119.854L205.049 119.37L205.049 119.37L205.177 119.854ZM198.699 125.882L198.226 125.719L198.226 125.719L198.699 125.882ZM184.805 166.234L184.333 166.071L184.333 166.071L184.805 166.234ZM226.662 159.311L226.532 158.828L226.532 158.828L226.662 159.311ZM229.864 162.746L230.337 162.909L230.337 162.909L229.864 162.746ZM219.767 192.069L220.24 192.232L220.24 192.232L219.767 192.069ZM213.308 198.094L213.437 198.577L213.437 198.577L213.308 198.094ZM141.734 243.946L141.381 244.299L141.381 244.299L141.734 243.946ZM157.71 248.227L157.839 248.71L157.839 248.71L157.71 248.227ZM240.202 226.123L240.332 226.606L240.332 226.606L240.202 226.123ZM251.897 214.428L252.38 214.557L252.38 214.557L251.897 214.428ZM125.717 221.564L125.587 221.081L125.717 221.564ZM124.372 226.583L124.725 226.229L124.372 226.583ZM260.515 106.754L260.161 107.108L260.515 106.754ZM257.626 105.975L257.754 106.459L257.626 105.975ZM226.138 78.7418L226.267 79.2247L226.138 78.7418ZM91.708 193.919L91.3544 194.273L91.708 193.919ZM300.462 105.414L300.108 105.768C305.54 111.199 307.661 119.116 305.673 126.535L306.156 126.664L306.639 126.794C308.719 119.029 306.499 110.745 300.815 105.06L300.462 105.414ZM306.156 126.664L305.673 126.535L276.272 236.261L276.755 236.391L277.238 236.52L306.639 126.794L306.156 126.664ZM276.755 236.391L276.272 236.261C274.283 243.68 268.488 249.476 261.069 251.464L261.198 251.947L261.327 252.43C269.092 250.35 275.157 244.284 277.238 236.52L276.755 236.391ZM261.198 251.947L261.069 251.464L151.344 280.865L151.473 281.348L151.602 281.831L261.327 252.43L261.198 251.947ZM151.473 281.348L151.344 280.865C143.924 282.853 136.007 280.731 130.576 275.3L130.222 275.654L129.869 276.008C135.553 281.691 143.838 283.911 151.602 281.831L151.473 281.348ZM130.222 275.654L130.576 275.3L50.2505 194.975L49.897 195.329L49.5434 195.682L129.869 276.007L130.222 275.654ZM49.897 195.329L50.2505 194.975C44.8193 189.544 42.6981 181.627 44.6859 174.208L44.2029 174.078L43.72 173.949C41.6398 181.713 43.8596 189.998 49.5434 195.682L49.897 195.329ZM44.2029 174.078L44.6859 174.208L74.0873 64.4814L73.6043 64.352L73.1214 64.2226L43.72 173.949L44.2029 174.078ZM73.6043 64.352L74.0873 64.4814C76.0754 57.0623 81.8711 51.2667 89.2903 49.2786L89.1608 48.7956L89.0314 48.3127C81.2672 50.3932 75.202 56.4584 73.1214 64.2226L73.6043 64.352ZM89.1608 48.7956L89.2902 49.2786L199.015 19.8779L198.886 19.3949L198.756 18.9119L89.0314 48.3127L89.1608 48.7956ZM198.886 19.3949L199.015 19.8779C206.435 17.8899 214.351 20.0112 219.783 25.4424L220.136 25.0889L220.49 24.7353C214.806 19.0515 206.521 16.8315 198.756 18.9119L198.886 19.3949ZM220.136 25.0889L219.783 25.4424L300.108 105.768L300.462 105.414L300.815 105.06L220.49 24.7353L220.136 25.0889ZM209.332 55.5724L209.685 55.2189C205.381 50.9144 199.107 49.2325 193.227 50.8079L193.356 51.2909L193.485 51.7738C199.02 50.2909 204.926 51.8741 208.978 55.926L209.332 55.5724ZM193.356 51.2909L193.227 50.8079L110.734 72.9117L110.864 73.3946L110.993 73.8776L193.485 51.7738L193.356 51.2909ZM110.864 73.3946L110.734 72.9117C104.854 74.4874 100.262 79.0811 98.6861 84.961L99.1691 85.0905L99.6521 85.2199C101.135 79.6849 105.458 75.3609 110.993 73.8776L110.864 73.3946ZM99.1691 85.0905L98.6861 84.961L76.5822 167.453L77.0652 167.582L77.5481 167.712L99.6521 85.2199L99.1691 85.0905ZM77.0652 167.582L76.5822 167.453C75.0069 173.333 76.6879 179.607 80.9922 183.911L81.3458 183.558L81.6994 183.204C77.6477 179.152 76.0653 173.246 77.5481 167.712L77.0652 167.582ZM81.3458 183.558L80.9923 183.911L91.3544 194.273L91.708 193.919L92.0615 193.566L81.6993 183.204L81.3458 183.558ZM94.6057 194.696L94.7351 195.179L138.855 183.357L138.726 182.874L138.596 182.391L94.4763 194.213L94.6057 194.696ZM138.726 182.874L138.855 183.357C140.288 182.973 141.748 182.069 142.96 180.939C144.172 179.809 145.176 178.416 145.659 177.013L145.186 176.85L144.714 176.687C144.297 177.896 143.405 179.157 142.278 180.208C141.152 181.258 139.831 182.06 138.596 182.391L138.726 182.874ZM145.186 176.85L145.659 177.013L159.615 136.478L159.143 136.316L158.67 136.153L144.714 176.687L145.186 176.85ZM159.143 136.316L159.615 136.478C160.093 135.09 160.004 133.83 159.25 133.016C158.496 132.201 157.248 132.018 155.83 132.393L155.958 132.876L156.086 133.359C157.326 133.031 158.119 133.266 158.516 133.695C158.915 134.125 159.089 134.936 158.67 136.153L159.143 136.316ZM155.958 132.876L155.83 132.393L122.982 141.084L123.11 141.568L123.238 142.051L156.086 133.359L155.958 132.876ZM123.11 141.568L122.982 141.084C121.742 141.412 120.949 141.178 120.551 140.749C120.153 140.318 119.979 139.507 120.398 138.291L119.925 138.128L119.452 137.965C118.974 139.354 119.064 140.614 119.818 141.428C120.572 142.243 121.82 142.426 123.238 142.051L123.11 141.568ZM119.925 138.128L120.398 138.291L130.5 108.95L130.028 108.787L129.555 108.624L119.452 137.965L119.925 138.128ZM130.028 108.787L130.5 108.95C130.917 107.741 131.809 106.48 132.935 105.43C134.061 104.38 135.382 103.577 136.617 103.246L136.487 102.763L136.358 102.28C134.925 102.665 133.465 103.568 132.253 104.698C131.041 105.828 130.038 107.222 129.555 108.624L130.028 108.787ZM136.487 102.763L136.617 103.246L226.267 79.2247L226.138 78.7418L226.008 78.2588L136.358 102.28L136.487 102.763ZM227.482 73.7227L227.836 73.3691L209.685 55.2189L209.332 55.5724L208.978 55.926L227.129 74.0762L227.482 73.7227ZM274.001 131.936L274.484 132.065C276.059 126.185 274.378 119.911 270.074 115.607L269.72 115.96L269.367 116.314C273.418 120.366 275.001 126.272 273.518 131.807L274.001 131.936ZM269.72 115.96L270.074 115.607L260.868 106.401L260.515 106.754L260.161 107.108L269.367 116.314L269.72 115.96ZM257.626 105.975L257.498 105.492L205.049 119.37L205.177 119.854L205.305 120.337L257.754 106.459L257.626 105.975ZM205.177 119.854L205.049 119.37C203.614 119.75 202.149 120.654 200.934 121.785C199.718 122.916 198.711 124.313 198.226 125.719L198.699 125.882L199.172 126.045C199.59 124.833 200.485 123.569 201.615 122.517C202.745 121.466 204.069 120.664 205.305 120.337L205.177 119.854ZM198.699 125.882L198.226 125.719L184.333 166.071L184.805 166.234L185.278 166.397L199.172 126.045L198.699 125.882ZM184.805 166.234L184.333 166.071C183.853 167.463 183.944 168.726 184.703 169.54C185.462 170.354 186.716 170.533 188.138 170.151L188.008 169.668L187.879 169.186C186.633 169.519 185.835 169.287 185.435 168.858C185.034 168.429 184.858 167.617 185.278 166.397L184.805 166.234ZM188.008 169.668L188.138 170.151L226.791 159.794L226.662 159.311L226.532 158.828L187.879 169.186L188.008 169.668ZM226.662 159.311L226.791 159.794C228.037 159.461 228.834 159.693 229.234 160.123C229.635 160.552 229.811 161.364 229.391 162.583L229.864 162.746L230.337 162.909C230.816 161.517 230.724 160.254 229.966 159.441C229.207 158.627 227.954 158.448 226.532 158.828L226.662 159.311ZM229.864 162.746L229.391 162.583L219.295 191.907L219.767 192.069L220.24 192.232L230.337 162.909L229.864 162.746ZM219.767 192.069L219.295 191.907C218.878 193.116 217.986 194.377 216.86 195.427C215.734 196.478 214.413 197.28 213.178 197.611L213.308 198.094L213.437 198.577C214.87 198.193 216.33 197.289 217.542 196.159C218.754 195.028 219.757 193.635 220.24 192.232L219.767 192.069ZM213.308 198.094L213.178 197.611L125.587 221.081L125.717 221.564L125.846 222.047L213.437 198.577L213.308 198.094ZM124.372 226.583L124.018 226.937L141.381 244.299L141.734 243.946L142.088 243.592L124.725 226.229L124.372 226.583ZM141.734 243.946L141.381 244.299C145.685 248.604 151.959 250.285 157.839 248.71L157.71 248.227L157.581 247.744C152.046 249.227 146.14 247.644 142.088 243.592L141.734 243.946ZM157.71 248.227L157.839 248.71L240.332 226.606L240.202 226.123L240.073 225.64L157.581 247.744L157.71 248.227ZM240.202 226.123L240.332 226.606C246.212 225.031 250.804 220.437 252.38 214.557L251.897 214.428L251.414 214.298C249.931 219.833 245.608 224.157 240.073 225.64L240.202 226.123ZM251.897 214.428L252.38 214.557L274.484 132.065L274.001 131.936L273.518 131.806L251.414 214.298L251.897 214.428ZM125.717 221.564L125.587 221.081C122.985 221.778 122.113 225.031 124.018 226.937L124.372 226.583L124.725 226.229C123.365 224.869 123.987 222.545 125.846 222.047L125.717 221.564ZM260.515 106.754L260.868 106.401C259.987 105.519 258.703 105.173 257.498 105.492L257.626 105.975L257.754 106.459C258.615 106.231 259.532 106.478 260.161 107.108L260.515 106.754ZM226.138 78.7418L226.267 79.2247C228.869 78.5274 229.741 75.2743 227.836 73.3691L227.482 73.7227L227.129 74.0762C228.49 75.437 227.867 77.7607 226.008 78.2588L226.138 78.7418ZM91.708 193.919L91.3544 194.273C92.2386 195.157 93.5273 195.502 94.7351 195.179L94.6057 194.696L94.4763 194.213C93.6136 194.444 92.6931 194.197 92.0615 193.566L91.708 193.919Z" fill="#DDDDDD"/>
</g>
<defs>
<filter id="filter0_i_93_33" x="42.9529" y="18.145" width="264.453" height="268.453" filterUnits="userSpaceOnUse" color-interpolation-filters="sRGB">
<feFlood flood-opacity="0" result="BackgroundImageFix"/>
<feBlend mode="normal" in="SourceGraphic" in2="BackgroundImageFix" result="shape"/>
<feColorMatrix in="SourceAlpha" type="matrix" values="0 0 0 0 0 0 0 0 0 0 0 0 0 0 0 0 0 0 127 0" result="hardAlpha"/>
<feOffset dy="4"/>
<feGaussianBlur stdDeviation="2"/>
<feComposite in2="hardAlpha" operator="arithmetic" k2="-1" k3="1"/>
<feColorMatrix type="matrix" values="0 0 0 0 0 0 0 0 0 0 0 0 0 0 0 0 0 0 0.58 0"/>
<feBlend mode="normal" in2="shape" result="effect1_innerShadow_93_33"/>
</filter>
<clipPath id="clip0_93_33">
<rect width="257" height="270" fill="white"/>
</clipPath>
</defs>
</svg>
