<svg width="257" height="270" viewBox="0 0 257 270" fill="none" xmlns="http://www.w3.org/2000/svg">
<g clip-path="url(#clip0_93_34)" filter="url(#filter0_n_93_34)">
<mask id="path-1-inside-1_93_34" fill="white">
<path d="M300.415 105.413C305.973 110.971 308.143 119.072 306.109 126.664L276.708 236.39C274.673 243.982 268.743 249.912 261.151 251.946L151.425 281.347C143.834 283.381 135.733 281.211 130.176 275.653L49.8502 195.328C44.2926 189.77 42.122 181.67 44.1562 174.078L73.5576 64.3513C75.592 56.7598 81.5216 50.8294 89.1131 48.7951L198.839 19.3941C206.431 17.3601 214.532 19.5307 220.09 25.0881L300.415 105.413ZM209.285 55.5717C205.107 51.3936 199.017 49.7611 193.309 51.2901L110.817 73.3939C105.11 74.9232 100.652 79.3823 99.1223 85.0897L77.0184 167.581C75.4892 173.289 77.121 179.379 81.299 183.557L91.6624 193.919C92.4203 194.677 93.5249 194.973 94.5601 194.696L138.679 182.874C141.347 182.159 144.239 179.461 145.139 176.849L159.096 136.316C159.993 133.711 158.569 132.173 155.911 132.876L123.063 141.568C120.405 142.271 118.981 140.732 119.878 138.127L129.981 108.787C130.88 106.175 133.772 103.478 136.441 102.763L226.091 78.741C228.321 78.1433 229.069 75.3549 227.436 73.7219L209.285 55.5717ZM273.954 131.935C275.483 126.228 273.851 120.138 269.673 115.96L260.469 106.754C259.714 105.999 258.613 105.702 257.58 105.975L205.131 119.854C202.458 120.561 199.554 123.264 198.652 125.883L184.758 166.234C183.858 168.846 185.293 170.384 187.961 169.669L226.614 159.312C229.282 158.597 230.716 160.135 229.817 162.746L219.72 192.07C218.82 194.682 215.928 197.378 213.26 198.094L125.67 221.563C123.439 222.161 122.692 224.949 124.325 226.582L141.687 243.945C145.866 248.123 151.956 249.756 157.663 248.226L240.156 226.123C245.863 224.593 250.321 220.134 251.85 214.427L273.954 131.935Z"/>
</mask>
<g filter="url(#filter1_i_93_34)">
<path d="M300.415 105.413C305.973 110.971 308.143 119.072 306.109 126.664L276.708 236.39C274.673 243.982 268.743 249.912 261.151 251.946L151.425 281.347C143.834 283.381 135.733 281.211 130.176 275.653L49.8502 195.328C44.2926 189.77 42.122 181.67 44.1562 174.078L73.5576 64.3513C75.592 56.7598 81.5216 50.8294 89.1131 48.7951L198.839 19.3941C206.431 17.3601 214.532 19.5307 220.09 25.0881L300.415 105.413ZM209.285 55.5717C205.107 51.3936 199.017 49.7611 193.309 51.2901L110.817 73.3939C105.11 74.9232 100.652 79.3823 99.1223 85.0897L77.0184 167.581C75.4892 173.289 77.121 179.379 81.299 183.557L91.6624 193.919C92.4203 194.677 93.5249 194.973 94.5601 194.696L138.679 182.874C141.347 182.159 144.239 179.461 145.139 176.849L159.096 136.316C159.993 133.711 158.569 132.173 155.911 132.876L123.063 141.568C120.405 142.271 118.981 140.732 119.878 138.127L129.981 108.787C130.88 106.175 133.772 103.478 136.441 102.763L226.091 78.741C228.321 78.1433 229.069 75.3549 227.436 73.7219L209.285 55.5717ZM273.954 131.935C275.483 126.228 273.851 120.138 269.673 115.96L260.469 106.754C259.714 105.999 258.613 105.702 257.58 105.975L205.131 119.854C202.458 120.561 199.554 123.264 198.652 125.883L184.758 166.234C183.858 168.846 185.293 170.384 187.961 169.669L226.614 159.312C229.282 158.597 230.716 160.135 229.817 162.746L219.72 192.07C218.82 194.682 215.928 197.378 213.26 198.094L125.67 221.563C123.439 222.161 122.692 224.949 124.325 226.582L141.687 243.945C145.866 248.123 151.956 249.756 157.663 248.226L240.156 226.123C245.863 224.593 250.321 220.134 251.85 214.427L273.954 131.935Z" fill="#1A1A1A"/>
</g>
<path d="M300.415 105.413L301.122 104.706L301.122 104.706L300.415 105.413ZM306.109 126.664L307.075 126.922L307.075 126.922L306.109 126.664ZM276.708 236.39L277.674 236.649L277.674 236.649L276.708 236.39ZM261.151 251.946L261.41 252.912L261.41 252.912L261.151 251.946ZM151.425 281.347L151.684 282.313L151.684 282.313L151.425 281.347ZM130.176 275.653L129.469 276.36L129.469 276.36L130.176 275.653ZM49.8502 195.328L49.1431 196.035L49.1431 196.035L49.8502 195.328ZM44.1562 174.078L43.1903 173.819L43.1903 173.819L44.1562 174.078ZM73.5576 64.3513L72.5916 64.0924L72.5916 64.0924L73.5576 64.3513ZM89.1131 48.7951L88.8543 47.8292L88.8543 47.8292L89.1131 48.7951ZM198.839 19.3941L198.58 18.4282L198.58 18.4282L198.839 19.3941ZM220.09 25.0881L220.797 24.381L220.797 24.381L220.09 25.0881ZM209.285 55.5717L208.578 56.2788L208.578 56.2788L209.285 55.5717ZM193.309 51.2901L193.051 50.3242L193.05 50.3242L193.309 51.2901ZM110.817 73.3939L110.558 72.4279L110.558 72.4279L110.817 73.3939ZM99.1223 85.0897L98.1564 84.8308L98.1564 84.8309L99.1223 85.0897ZM77.0184 167.581L76.0525 167.323L76.0525 167.323L77.0184 167.581ZM81.299 183.557L80.5919 184.264L80.592 184.264L81.299 183.557ZM138.679 182.874L138.938 183.84L138.938 183.84L138.679 182.874ZM145.139 176.849L144.193 176.524L144.193 176.524L145.139 176.849ZM159.096 136.316L160.042 136.641L160.042 136.641L159.096 136.316ZM155.911 132.876L155.655 131.91L155.655 131.91L155.911 132.876ZM123.063 141.568L123.318 142.535L123.318 142.535L123.063 141.568ZM119.878 138.127L118.933 137.802L118.933 137.802L119.878 138.127ZM129.981 108.787L129.036 108.462L129.036 108.462L129.981 108.787ZM136.441 102.763L136.182 101.797L136.441 102.763ZM273.954 131.935L274.92 132.194L274.92 132.194L273.954 131.935ZM269.673 115.96L268.966 116.667L268.966 116.667L269.673 115.96ZM205.131 119.854L205.386 120.821L205.386 120.821L205.131 119.854ZM198.652 125.883L199.597 126.208L199.597 126.208L198.652 125.883ZM184.758 166.234L183.812 165.908L183.812 165.908L184.758 166.234ZM226.614 159.312L226.355 158.346L226.355 158.346L226.614 159.312ZM229.817 162.746L230.763 163.072L230.763 163.072L229.817 162.746ZM219.72 192.07L220.665 192.395L220.665 192.395L219.72 192.07ZM213.26 198.094L213.519 199.059L213.519 199.059L213.26 198.094ZM141.687 243.945L140.98 244.652L140.98 244.652L141.687 243.945ZM157.663 248.226L157.922 249.192L157.922 249.192L157.663 248.226ZM240.156 226.123L240.414 227.089L240.414 227.089L240.156 226.123ZM251.85 214.427L250.884 214.168L250.884 214.168L251.85 214.427ZM125.67 221.563L125.411 220.597L125.67 221.563ZM124.325 226.582L123.618 227.289L124.325 226.582ZM260.469 106.754L261.176 106.047L260.469 106.754ZM257.58 105.975L257.836 106.942L257.58 105.975ZM226.091 78.741L226.35 79.7069L226.091 78.741ZM227.436 73.7219L226.728 74.429L227.436 73.7219ZM300.415 105.413L299.708 106.12C305.013 111.425 307.085 119.158 305.143 126.405L306.109 126.664L307.075 126.922C309.202 118.986 306.932 110.516 301.122 104.706L300.415 105.413ZM306.109 126.664L305.143 126.405L275.742 236.131L276.708 236.39L277.674 236.649L307.075 126.922L306.109 126.664ZM276.708 236.39L275.742 236.131C273.8 243.378 268.139 249.039 260.892 250.981L261.151 251.946L261.41 252.912C269.347 250.786 275.547 244.586 277.674 236.649L276.708 236.39ZM261.151 251.946L260.892 250.981L151.167 280.381L151.425 281.347L151.684 282.313L261.41 252.912L261.151 251.946ZM151.425 281.347L151.167 280.381C143.92 282.323 136.188 280.251 130.883 274.946L130.176 275.653L129.469 276.36C135.279 282.17 143.747 284.44 151.684 282.313L151.425 281.347ZM130.176 275.653L130.883 274.946L50.5573 194.621L49.8502 195.328L49.1431 196.035L129.469 276.36L130.176 275.653ZM49.8502 195.328L50.5573 194.621C45.2523 189.316 43.1804 181.583 45.1221 174.336L44.1562 174.078L43.1903 173.819C41.0636 181.756 43.3328 190.225 49.1431 196.035L49.8502 195.328ZM44.1562 174.078L45.1221 174.336L74.5235 64.6101L73.5576 64.3513L72.5916 64.0924L43.1903 173.819L44.1562 174.078ZM73.5576 64.3513L74.5235 64.6101C76.4655 57.3637 82.1256 51.7029 89.372 49.761L89.1131 48.7951L88.8543 47.8292C80.9177 49.956 74.7186 56.156 72.5916 64.0924L73.5576 64.3513ZM89.1131 48.7951L89.372 49.761L199.098 20.3601L198.839 19.3941L198.58 18.4282L88.8543 47.8292L89.1131 48.7951ZM198.839 19.3941L199.098 20.3601C206.345 18.4185 214.078 20.4905 219.383 25.7952L220.09 25.0881L220.797 24.381C214.986 18.571 206.517 16.3017 198.58 18.4282L198.839 19.3941ZM220.09 25.0881L219.383 25.7952L299.708 106.12L300.415 105.413L301.122 104.706L220.797 24.381L220.09 25.0881ZM209.285 55.5717L209.992 54.8646C205.561 50.4339 199.103 48.7027 193.051 50.3242L193.309 51.2901L193.568 52.2561C198.93 50.8195 204.652 52.3533 208.578 56.2788L209.285 55.5717ZM193.309 51.2901L193.05 50.3242L110.558 72.4279L110.817 73.3939L111.076 74.3598L193.568 52.256L193.309 51.2901ZM110.817 73.3939L110.558 72.4279C104.505 74.0498 99.7783 78.7785 98.1564 84.8308L99.1223 85.0897L100.088 85.3485C101.525 79.9861 105.714 75.7967 111.076 74.3598L110.817 73.3939ZM99.1223 85.0897L98.1564 84.8309L76.0525 167.323L77.0184 167.581L77.9843 167.84L100.088 85.3485L99.1223 85.0897ZM77.0184 167.581L76.0525 167.323C74.4308 173.375 76.1612 179.833 80.5919 184.264L81.299 183.557L82.0062 182.85C78.0807 178.924 76.5476 173.203 77.9843 167.84L77.0184 167.581ZM81.299 183.557L80.592 184.264L90.9554 194.626L91.6624 193.919L92.3695 193.212L82.0061 182.85L81.299 183.557ZM94.5601 194.696L94.8189 195.662L138.938 183.84L138.679 182.874L138.42 181.908L94.3013 193.73L94.5601 194.696ZM138.679 182.874L138.938 183.84C140.47 183.429 142 182.474 143.254 181.304C144.509 180.134 145.568 178.675 146.084 177.175L145.139 176.849L144.193 176.524C143.81 177.636 142.974 178.831 141.89 179.842C140.807 180.852 139.556 181.604 138.42 181.908L138.679 182.874ZM145.139 176.849L146.084 177.175L160.042 136.641L159.096 136.316L158.151 135.99L144.193 176.524L145.139 176.849ZM159.096 136.316L160.042 136.641C160.549 135.167 160.502 133.682 159.57 132.676C158.637 131.669 157.161 131.511 155.655 131.91L155.911 132.876L156.167 133.843C157.318 133.539 157.883 133.798 158.103 134.035C158.323 134.273 158.54 134.86 158.151 135.99L159.096 136.316ZM155.911 132.876L155.655 131.91L122.807 140.601L123.063 141.568L123.318 142.535L156.167 133.843L155.911 132.876ZM123.063 141.568L122.807 140.601C121.656 140.906 121.091 140.646 120.871 140.409C120.651 140.171 120.434 139.583 120.824 138.453L119.878 138.127L118.933 137.802C118.425 139.277 118.472 140.761 119.403 141.767C120.336 142.775 121.812 142.933 123.318 142.535L123.063 141.568ZM119.878 138.127L120.824 138.453L130.927 109.113L129.981 108.787L129.036 108.462L118.933 137.802L119.878 138.127ZM129.981 108.787L130.927 109.113C131.31 108 132.146 106.805 133.23 105.795C134.313 104.784 135.563 104.033 136.7 103.729L136.441 102.763L136.182 101.797C134.65 102.207 133.12 103.162 131.865 104.332C130.611 105.502 129.552 106.962 129.036 108.462L129.981 108.787ZM136.441 102.763L136.7 103.729L226.35 79.7069L226.091 78.741L225.832 77.7751L136.182 101.797L136.441 102.763ZM227.436 73.7219L228.143 73.0148L209.992 54.8646L209.285 55.5717L208.578 56.2788L226.728 74.429L227.436 73.7219ZM273.954 131.935L274.92 132.194C276.541 126.142 274.811 119.683 270.381 115.253L269.673 115.96L268.966 116.667C272.892 120.592 274.425 126.314 272.988 131.676L273.954 131.935ZM269.673 115.96L270.381 115.253L261.176 106.047L260.469 106.754L259.762 107.461L268.966 116.667L269.673 115.96ZM257.58 105.975L257.324 105.009L204.875 118.887L205.131 119.854L205.386 120.821L257.836 106.942L257.58 105.975ZM205.131 119.854L204.875 118.887C203.34 119.293 201.805 120.248 200.546 121.419C199.287 122.59 198.224 124.053 197.706 125.557L198.652 125.883L199.597 126.208C199.981 125.093 200.821 123.895 201.909 122.883C202.996 121.872 204.249 121.121 205.386 120.821L205.131 119.854ZM198.652 125.883L197.706 125.557L183.812 165.908L184.758 166.234L185.703 166.559L199.597 126.208L198.652 125.883ZM184.758 166.234L183.812 165.908C183.303 167.387 183.352 168.875 184.29 169.881C185.228 170.887 186.709 171.04 188.22 170.635L187.961 169.669L187.702 168.703C186.544 169.013 185.974 168.754 185.753 168.517C185.531 168.279 185.313 167.692 185.703 166.559L184.758 166.234ZM187.961 169.669L188.22 170.635L226.873 160.278L226.614 159.312L226.355 158.346L187.702 168.703L187.961 169.669ZM226.614 159.312L226.873 160.278C228.03 159.968 228.601 160.227 228.822 160.464C229.043 160.701 229.262 161.288 228.872 162.421L229.817 162.746L230.763 163.072C231.272 161.593 231.223 160.106 230.284 159.1C229.347 158.094 227.866 157.941 226.355 158.346L226.614 159.312ZM229.817 162.746L228.872 162.421L218.774 191.744L219.72 192.07L220.665 192.395L230.763 163.072L229.817 162.746ZM219.72 192.07L218.774 191.744C218.391 192.856 217.555 194.051 216.471 195.062C215.388 196.072 214.137 196.823 213.001 197.128L213.26 198.094L213.519 199.059C215.051 198.649 216.581 197.694 217.835 196.524C219.09 195.355 220.149 193.895 220.665 192.395L219.72 192.07ZM213.26 198.094L213.001 197.128L125.411 220.597L125.67 221.563L125.929 222.529L213.519 199.059L213.26 198.094ZM124.325 226.582L123.618 227.289L140.98 244.652L141.687 243.945L142.395 243.238L125.032 225.875L124.325 226.582ZM141.687 243.945L140.98 244.652C145.411 249.083 151.869 250.814 157.922 249.192L157.663 248.226L157.404 247.261C152.042 248.697 146.32 247.163 142.395 243.238L141.687 243.945ZM157.663 248.226L157.922 249.192L240.414 227.089L240.156 226.123L239.897 225.157L157.404 247.261L157.663 248.226ZM240.156 226.123L240.414 227.089C246.467 225.467 251.194 220.738 252.816 214.686L251.85 214.427L250.884 214.168C249.447 219.53 245.259 223.72 239.897 225.157L240.156 226.123ZM251.85 214.427L252.816 214.686L274.92 132.194L273.954 131.935L272.988 131.676L250.884 214.168L251.85 214.427ZM125.67 221.563L125.411 220.597C122.437 221.394 121.441 225.112 123.618 227.289L124.325 226.582L125.032 225.875C123.944 224.787 124.442 222.928 125.929 222.529L125.67 221.563ZM260.469 106.754L261.176 106.047C260.169 105.04 258.702 104.644 257.324 105.009L257.58 105.975L257.836 106.942C258.525 106.76 259.258 106.958 259.762 107.461L260.469 106.754ZM226.091 78.741L226.35 79.7069C229.324 78.91 230.32 75.1921 228.143 73.0148L227.436 73.7219L226.728 74.429C227.817 75.5177 227.319 77.3766 225.832 77.7751L226.091 78.741ZM91.6624 193.919L90.9554 194.626C91.9659 195.637 93.4386 196.031 94.8189 195.662L94.5601 194.696L94.3013 193.73C93.6111 193.915 92.8747 193.717 92.3695 193.212L91.6624 193.919Z" fill="#333333" mask="url(#path-1-inside-1_93_34)"/>
</g>
<defs>
<filter id="filter0_n_93_34" x="0" y="0" width="257" height="270" filterUnits="userSpaceOnUse" color-interpolation-filters="sRGB">
<feFlood flood-opacity="0" result="BackgroundImageFix"/>
<feBlend mode="normal" in="SourceGraphic" in2="BackgroundImageFix" result="shape"/>
<feTurbulence type="fractalNoise" baseFrequency="2 2" stitchTiles="stitch" numOctaves="3" result="noise" seed="3019" />
<feColorMatrix in="noise" type="luminanceToAlpha" result="alphaNoise" />
<feComponentTransfer in="alphaNoise" result="coloredNoise1">
<feFuncA type="discrete" tableValues="1 1 1 1 1 1 1 1 1 1 1 1 1 1 1 1 1 1 1 1 1 1 1 1 1 1 1 1 1 1 1 1 1 1 1 1 1 1 1 1 1 1 1 1 1 1 1 1 1 1 1 0 0 0 0 0 0 0 0 0 0 0 0 0 0 0 0 0 0 0 0 0 0 0 0 0 0 0 0 0 0 0 0 0 0 0 0 0 0 0 0 0 0 0 0 0 0 0 0 0 "/>
</feComponentTransfer>
<feComposite operator="in" in2="shape" in="coloredNoise1" result="noise1Clipped" />
<feFlood flood-color="rgba(0, 0, 0, 0.25)" result="color1Flood" />
<feComposite operator="in" in2="noise1Clipped" in="color1Flood" result="color1" />
<feMerge result="effect1_noise_93_34">
<feMergeNode in="shape" />
<feMergeNode in="color1" />
</feMerge>
</filter>
<filter id="filter1_i_93_34" x="43.406" y="18.644" width="263.453" height="267.453" filterUnits="userSpaceOnUse" color-interpolation-filters="sRGB">
<feFlood flood-opacity="0" result="BackgroundImageFix"/>
<feBlend mode="normal" in="SourceGraphic" in2="BackgroundImageFix" result="shape"/>
<feColorMatrix in="SourceAlpha" type="matrix" values="0 0 0 0 0 0 0 0 0 0 0 0 0 0 0 0 0 0 127 0" result="hardAlpha"/>
<feOffset dy="4"/>
<feGaussianBlur stdDeviation="2"/>
<feComposite in2="hardAlpha" operator="arithmetic" k2="-1" k3="1"/>
<feColorMatrix type="matrix" values="0 0 0 0 0 0 0 0 0 0 0 0 0 0 0 0 0 0 0.58 0"/>
<feBlend mode="normal" in2="shape" result="effect1_innerShadow_93_34"/>
</filter>
<clipPath id="clip0_93_34">
<rect width="257" height="270" fill="white"/>
</clipPath>
</defs>
</svg>
