<svg width="257" height="300" viewBox="0 0 257 300" fill="none" xmlns="http://www.w3.org/2000/svg">
<g clip-path="url(#clip0_93_33)">
<g filter="url(#filter0_i_93_33)">
<path d="M300.462 105.414C306.02 110.971 308.19 119.072 306.156 126.664L276.755 236.391C274.72 243.982 268.79 249.913 261.198 251.947L151.472 281.348C143.881 283.382 135.78 281.211 130.223 275.654L49.8972 195.329C44.3396 189.771 42.169 181.67 44.2032 174.078L73.6046 64.3518C75.639 56.7602 81.5686 50.83 89.1602 48.7956L198.886 19.3946C206.478 17.3604 214.579 19.5311 220.137 25.0886L300.462 105.414ZM209.332 55.5722C205.154 51.394 199.064 49.7615 193.356 51.2906L110.864 73.3944C105.156 74.9238 100.699 79.3826 99.1694 85.0902L77.0655 167.582C75.5362 173.289 77.168 179.379 81.3461 183.557L91.7083 193.919C92.4661 194.677 93.5707 194.973 94.606 194.695L138.726 182.874C141.394 182.159 144.286 179.462 145.186 176.85L159.143 136.316C160.04 133.711 158.616 132.174 155.958 132.877L123.11 141.567C120.452 142.271 119.028 140.733 119.925 138.128L130.028 108.787C130.927 106.175 133.82 103.478 136.488 102.763L226.138 78.7415C228.369 78.1438 229.116 75.3554 227.483 73.7224L209.332 55.5722ZM274.001 131.936C275.53 126.228 273.898 120.138 269.72 115.96L260.516 106.755C259.761 105.999 258.66 105.703 257.627 105.976L205.177 119.853C202.505 120.56 199.601 123.264 198.699 125.883L184.805 166.234C183.905 168.846 185.34 170.383 188.008 169.668L226.661 159.311C229.329 158.597 230.763 160.135 229.864 162.747L219.768 192.07C218.868 194.682 215.975 197.379 213.307 198.094L125.717 221.564C123.486 222.161 122.739 224.95 124.372 226.583L141.734 243.945C145.913 248.124 152.003 249.756 157.71 248.227L240.203 226.123C245.91 224.594 250.368 220.135 251.897 214.427L274.001 131.936Z" fill="white"/>
</g>
</g>
<defs>
<filter id="filter0_i_93_33" x="43.4531" y="18.6445" width="263.453" height="267.453" filterUnits="userSpaceOnUse" color-interpolation-filters="sRGB">
<feFlood flood-opacity="0" result="BackgroundImageFix"/>
<feBlend mode="normal" in="SourceGraphic" in2="BackgroundImageFix" result="shape"/>
<feColorMatrix in="SourceAlpha" type="matrix" values="0 0 0 0 0 0 0 0 0 0 0 0 0 0 0 0 0 0 127 0" result="hardAlpha"/>
<feOffset dy="4"/>
<feGaussianBlur stdDeviation="2"/>
<feComposite in2="hardAlpha" operator="arithmetic" k2="-1" k3="1"/>
<feColorMatrix type="matrix" values="0 0 0 0 0 0 0 0 0 0 0 0 0 0 0 0 0 0 0.58 0"/>
<feBlend mode="normal" in2="shape" result="effect1_innerShadow_93_33"/>
</filter>
<clipPath id="clip0_93_33">
<rect width="257" height="300" fill="white"/>
</clipPath>
</defs>
</svg>
